<svg width="106" height="95" viewBox="0 0 106 95" fill="none" xmlns="http://www.w3.org/2000/svg">
<path d="M2.1494 66.8219C6.64205 69.5179 11.6553 71.1872 16.9354 70.581C21.5066 70.0588 25.6708 67.7821 29.245 64.9922C36.7432 59.1351 41.9213 50.9836 48.6491 44.3533C51.1052 41.9327 54.0247 39.3585 57.4934 38.8283C61.6201 38.1968 66.4217 41.5651 67.0003 45.9713C67.3742 48.7773 66.1761 51.9959 63.7725 53.5984C60.4911 55.7797 55.9094 54.8388 52.9359 52.5906C49.2623 49.82 49.2041 44.4294 50.1388 40.1148C52.0427 31.4264 59.9925 25.8651 68.2351 23.7624C77.2256 21.4615 86.5266 23.6879 94.5312 28.0507C96.4067 29.0737 98.2179 30.2022 99.9859 31.4153C101.594 32.5169 103.283 30.0186 101.688 28.9213C93.8725 23.5887 84.6693 19.5819 75.0492 19.8256C65.4291 20.0693 54.752 24.5292 49.7236 33.0719C46.7822 38.0759 45.7806 44.5784 47.5252 50.1763C49.6385 56.9771 59.5406 59.9331 65.3314 56.1712C71.5951 52.1032 71.383 42.8057 65.7367 38.3837C62.3717 35.7468 58.157 35.0587 54.1928 36.6668C50.2286 38.2749 46.9896 41.6185 44.1382 44.7403C40.6154 48.6247 37.3792 52.7487 33.8016 56.5861C30.4206 60.2213 26.6796 63.7903 22.1473 65.9413C17.5938 68.1134 12.6567 68.2131 7.9625 66.3977C6.5247 65.8359 5.17697 65.1349 3.84688 64.3406C2.18744 63.3489 0.477271 65.8258 2.14507 66.8346L2.1494 66.8219Z" fill="#170426"/>
<path fill-rule="evenodd" clip-rule="evenodd" d="M100.369 21.987C101.156 21.7285 102.003 22.1569 102.262 22.9439L104.92 31.0332C105.169 31.7909 104.781 32.6108 104.038 32.8996L96.5445 35.8104C95.7723 36.1104 94.9031 35.7276 94.6031 34.9554C94.3032 34.1832 94.686 33.314 95.4582 33.014L101.626 30.6182L99.4119 23.8803C99.1533 23.0932 99.5817 22.2456 100.369 21.987Z" fill="black"/>
<path d="M58.3436 16.5322C51.9856 19.0514 46.534 23.6178 42.8737 29.3909C42.1131 30.5986 43.9846 31.7785 44.7423 30.5803C48.2201 25.101 53.3597 20.8816 59.3787 18.4953C59.9397 18.276 60.0883 17.4881 59.8365 16.9995C59.5391 16.4249 58.8923 16.3195 58.3408 16.5416L58.3436 16.5322Z" fill="#170426"/>
<path d="M45.4244 18.1647C44.4355 19.5802 43.4372 20.9929 42.4483 22.4085C42.1177 22.8835 42.2859 23.6449 42.7941 23.9342C43.337 24.2444 43.9683 24.0981 44.3198 23.5884C45.3087 22.1728 46.307 20.7602 47.2959 19.3446C47.6265 18.8696 47.4583 18.1082 46.9501 17.8189C46.4072 17.5087 45.7759 17.655 45.4244 18.1647Z" fill="#170426"/>
</svg>
