<svg width="244" height="297" viewBox="0 0 244 297" fill="none" xmlns="http://www.w3.org/2000/svg">
<path d="M134.132 155.308C120.418 181.411 99.5 208.588 90.3505 193.225C79.442 174.908 137.491 176.855 110.285 214.699C87 247.088 10.8225 264.243 1.9995 266.088" stroke="#170426" stroke-width="3" stroke-linecap="round"/>
<g clip-path="url(#clip0_16085_123800)">
<path d="M206.566 83.9278C204.985 87.7904 202.42 91.8204 199.629 94.9302C193.622 101.627 185.651 106.342 176.916 108.169C172.66 109.058 168.431 109.248 164.052 108.589C163.829 108.557 163.607 108.522 163.391 108.484C163.292 108.468 163.19 108.447 163.091 108.431C163.06 108.425 163.036 108.421 163.02 108.42C163.005 108.415 162.981 108.411 162.957 108.407C162.436 108.307 161.915 108.193 161.4 108.074C160.442 107.846 159.489 107.577 158.55 107.276C157.605 106.973 156.667 106.631 155.744 106.26C155.317 106.086 154.896 105.91 154.475 105.721C154.246 105.621 154.018 105.516 153.789 105.412C153.674 105.357 153.563 105.304 153.446 105.253C153.381 105.223 153.319 105.195 153.255 105.161C153.237 105.155 153.223 105.146 153.194 105.132C149.567 103.329 146.199 101.069 143.132 98.4254C143.103 98.3992 143.083 98.3843 143.067 98.3706C143.051 98.3569 143.028 98.3369 142.999 98.3107C142.903 98.2247 142.806 98.1387 142.709 98.0527C142.516 97.8806 142.328 97.7061 142.139 97.5315C141.759 97.1812 141.388 96.8258 141.02 96.4629C140.285 95.737 139.572 94.9898 138.884 94.2213C137.509 92.6892 136.231 91.0679 135.064 89.3749C135.064 89.3749 134.95 89.2126 134.925 89.1752C134.866 89.089 134.808 88.9991 134.749 88.913C134.618 88.7157 134.491 88.5196 134.364 88.3236C134.078 87.8753 133.798 87.4245 133.525 86.9636C133.005 86.0881 132.516 85.1937 132.056 84.2879C131.6 83.3834 131.177 82.465 130.785 81.5315C130.608 81.1066 130.437 80.6792 130.271 80.2455C130.037 79.6268 129.981 79.4706 129.796 78.9055C129.17 77.0116 128.688 75.0735 128.37 73.1022C128.297 72.6531 128.233 72.2028 128.178 71.7512C128.147 71.5035 128.12 71.2571 128.096 71.0118C128.084 70.8867 128.073 70.7666 128.06 70.6415C128.056 70.6027 128.056 70.5777 128.055 70.5564C128.051 70.4926 128.043 70.4276 128.039 70.3638C127.977 69.5017 127.958 68.6369 127.964 67.7721C128.336 67.5531 128.615 67.1616 128.612 66.7148C128.606 65.6836 128.651 64.6485 128.752 63.6231C128.801 63.1186 128.863 62.614 128.94 62.1144C128.977 61.864 129.021 61.616 129.062 61.3668C129.07 61.3405 129.07 61.328 129.071 61.3117C129.074 61.3042 129.076 61.2967 129.081 61.2816C129.108 61.1364 129.138 60.9961 129.169 60.8521C129.573 58.9058 130.178 57.0051 130.959 55.179C131.054 54.9521 131.154 54.7265 131.257 54.5021C131.306 54.3893 131.36 54.2777 131.413 54.1662C131.418 54.1511 131.467 54.0546 131.495 53.9932C131.708 53.5632 131.927 53.1394 132.157 52.7193C132.635 51.8479 133.148 51.0001 133.7 50.1734C134.253 49.343 134.844 48.5337 135.467 47.7556C135.766 47.3791 136.075 47.0101 136.388 46.6423C136.408 46.6197 136.468 46.5519 136.495 46.5193C136.563 46.4414 136.635 46.3611 136.706 46.2845C136.903 46.0661 137.104 45.8488 137.305 45.6316C138.704 44.1425 140.214 42.7568 141.809 41.4822C142.618 40.8361 143.451 40.2188 144.3 39.6276C144.527 39.4691 144.693 39.3571 144.773 39.3043C144.954 39.1848 145.135 39.0653 145.316 38.9457C145.792 38.64 146.27 38.3392 146.758 38.0459C148.561 36.9646 150.43 35.9969 152.349 35.1417C153.311 34.7129 154.288 34.314 155.273 33.9426C155.782 33.7519 156.056 33.6546 156.446 33.5205C156.943 33.3511 157.443 33.1867 157.948 33.0322C159.947 32.4158 161.988 31.9131 164.048 31.5418C165.067 31.3568 166.093 31.203 167.124 31.0843C167.622 31.0275 168.122 30.9757 168.619 30.9352C168.692 30.9299 168.824 30.9194 168.829 30.9169C168.957 30.909 169.086 30.8973 169.213 30.8893C169.469 30.8734 169.724 30.8575 169.978 30.8454C171.992 30.7507 174.015 30.7838 176.024 30.9708C177.011 31.0625 177.99 31.1892 178.964 31.356C179.087 31.3756 179.205 31.3978 179.326 31.4211C179.353 31.4298 179.374 31.4285 179.389 31.4334C179.408 31.4396 179.431 31.4433 179.459 31.4482C179.697 31.4974 179.94 31.5441 180.177 31.5971C180.651 31.6994 181.126 31.8141 181.594 31.9351C183.452 32.418 185.272 33.055 187.01 33.8612C187.354 34.0202 187.626 34.1556 188.124 34.4155C188.66 34.6965 189.192 34.9925 189.712 35.2973C190.672 35.8634 191.609 36.4721 192.516 37.121C194.376 38.4549 195.834 39.7101 197.426 41.3391C198.972 42.9194 200.386 44.6228 201.659 46.4256C206.63 53.4594 209.451 62.3729 209.244 71.0341C209.136 75.5737 208.293 79.7004 206.56 83.934L206.566 83.9278Z" fill="#FFEFF0"/>
<path d="M198.435 80.7446C197.784 82.3263 197.068 83.6904 196.09 85.2307C195.19 86.6468 194.028 88.1764 193.028 89.2887C190.655 91.9239 187.883 94.1775 184.932 95.8886C183.402 96.7762 181.806 97.5464 180.16 98.1917C178.654 98.7788 176.932 99.2904 175.21 99.6481C171.895 100.335 168.643 100.481 165.215 99.9719C165.012 99.9426 164.814 99.9107 164.612 99.8776C164.557 99.8678 164.368 99.8347 164.302 99.8212C163.919 99.7449 163.54 99.6661 163.162 99.5748C162.404 99.396 161.653 99.1858 160.907 98.9444C160.157 98.7054 159.416 98.4364 158.688 98.1424C158.338 98.0021 157.995 97.8557 157.653 97.7054C157.482 97.6284 157.308 97.5502 157.138 97.4732C157.044 97.4297 156.95 97.3862 156.853 97.3377C156.82 97.3228 156.799 97.3116 156.784 97.3067C156.765 97.3005 156.748 97.2905 156.72 97.2731C150.884 94.3711 146.214 90.2448 142.489 84.9088C142.472 84.8825 142.409 84.7951 142.387 84.7627C142.35 84.709 142.318 84.6565 142.281 84.6029C142.175 84.443 142.07 84.2832 141.965 84.1196C141.748 83.7812 141.536 83.4365 141.326 83.0881C140.912 82.3974 140.524 81.6904 140.16 80.9746C139.799 80.26 139.459 79.5353 139.152 78.7967C139.005 78.448 138.866 78.0981 138.732 77.7456C138.659 77.5506 138.585 77.3557 138.516 77.1619C138.512 77.1482 138.507 77.1382 138.501 77.1194C138.46 77.0019 138.42 76.8844 138.38 76.7631C137.892 75.2855 137.512 73.7725 137.26 72.2353C137.196 71.8475 137.141 71.4585 137.093 71.072C137.072 70.9068 137.056 70.7429 137.039 70.5791C137.027 70.4752 137.019 70.3726 137.011 70.27C137.01 70.2362 137.004 70.205 137.002 70.1712C137.003 70.1674 137.001 70.1499 137 70.1161C136.953 69.4592 136.935 68.8073 136.935 68.149C137.236 67.9189 137.449 67.5765 137.447 67.1885C137.442 66.3701 137.477 65.5564 137.558 64.7414C137.595 64.3621 137.64 63.9852 137.698 63.6083C137.728 63.4017 137.764 63.1926 137.798 62.9872C137.802 62.9759 137.807 62.9484 137.811 62.9246C137.83 62.8144 137.854 62.7054 137.877 62.5965C138.201 61.0572 138.68 59.5525 139.301 58.1111C139.366 57.9619 139.434 57.809 139.499 57.6599C139.543 57.5658 139.586 57.4718 139.629 57.3816C139.636 57.359 139.66 57.3126 139.681 57.2738C139.847 56.9328 140.02 56.598 140.204 56.267C140.571 55.5961 140.969 54.944 141.392 54.3042C141.829 53.6482 142.295 53.0058 142.786 52.3883C143.021 52.0946 143.262 51.8035 143.503 51.516C143.523 51.4934 143.532 51.4796 143.545 51.4633C143.548 51.4558 143.558 51.4508 143.566 51.437C143.634 51.3591 143.706 51.2788 143.777 51.2022C143.917 51.044 144.059 50.8908 144.205 50.7389C145.311 49.5574 146.505 48.4632 147.766 47.4538C149.107 46.3829 150.181 45.6407 151.588 44.7961C152.992 43.9502 154.45 43.1929 155.949 42.5244C156.711 42.1839 157.483 41.8671 158.263 41.574C159 41.2961 159.569 41.1002 160.435 40.8356C161.998 40.3546 163.588 39.9661 165.197 39.6751C166.004 39.5284 166.814 39.408 167.629 39.3138C168.01 39.2686 168.394 39.2285 168.78 39.1971C168.797 39.1946 168.806 39.1933 168.815 39.192C168.836 39.1907 168.853 39.1881 168.887 39.1868C168.972 39.1815 169.057 39.1762 169.142 39.1709C169.355 39.1576 169.568 39.1443 169.779 39.1348C171.372 39.0555 172.972 39.0825 174.56 39.2309C175.34 39.3045 176.117 39.4019 176.886 39.5344C176.944 39.5455 177.176 39.5885 177.212 39.5921C177.389 39.6253 177.564 39.6622 177.74 39.6992C178.137 39.7841 178.531 39.8766 178.922 39.9804C180.354 40.3521 181.755 40.8429 183.097 41.4602C183.206 41.5086 183.314 41.5608 183.418 41.6118C183.36 41.5844 183.204 41.5036 183.461 41.6342C183.65 41.7299 183.836 41.8243 184.025 41.92C184.42 42.1252 184.807 42.3403 185.187 42.5655C185.949 43.0122 186.695 43.4914 187.413 44.0071C188.131 44.5189 188.822 45.0672 189.497 45.6356C189.526 45.6617 189.55 45.6779 189.569 45.6966C189.653 45.7702 189.737 45.8437 189.817 45.916C189.971 46.0544 190.128 46.1978 190.278 46.3387C190.619 46.6554 190.95 46.9809 191.274 47.3127C192.496 48.5612 193.614 49.909 194.62 51.3322C195.029 51.9127 195.482 52.612 195.916 53.3426C196.37 54.1045 196.79 54.889 197.182 55.6848C197.969 57.2815 198.603 58.8613 199.09 60.4427C200.132 63.8195 200.625 67.153 200.543 70.5762C200.456 74.1809 199.797 77.3808 198.413 80.7459L198.435 80.7446Z" fill="#FFA3A9"/>
<path d="M180.328 62.5867C181.175 60.2822 179.512 57.4758 177.688 55.8915C177.192 55.4614 176.16 55.684 175.867 56.2582C174.246 59.4077 172.729 62.6081 171.323 65.8619C171.141 66.2893 171.313 66.8043 171.584 67.1438C174.977 71.3534 180.848 75.6795 178.865 81.7725C176.717 88.3817 168.271 91.9579 161.778 89.9767C161.062 89.7577 160.394 90.1417 160.119 90.8135C159.987 91.1368 159.858 91.4652 159.727 91.7885C159.268 91.6124 158.819 91.4187 158.374 91.2138C158.891 90.5174 159.258 89.7214 159.2 88.9857C159.127 88.0574 158.095 87.1298 157.554 86.4434C155.128 83.3605 152.435 79.2274 153.908 75.1874C153.986 74.9756 154.009 74.779 153.989 74.6014C154.24 73.9134 154.552 73.2703 154.942 72.6444C156.809 73.5929 158.646 74.594 160.455 75.6402C159.367 77.9693 158.845 80.339 159.82 82.9062C160.273 84.0973 161.826 83.6339 162.242 82.7251C163.38 80.2456 164.519 77.7624 165.657 75.283C166.199 74.1034 167.158 72.7359 167.404 71.471C167.578 70.5781 167.015 69.9968 166.532 69.3002C164.099 65.7818 161.115 61.9651 162.784 57.4688C163.861 54.7318 165.759 51.1696 168.452 49.711C171.024 48.3167 174.163 49.2131 176.745 50.089C177.259 50.2624 177.97 50.0634 178.25 49.5681C178.695 48.7856 179.147 48.0094 179.602 47.2343C179.982 47.3594 180.357 47.487 180.735 47.6159C180.321 48.2919 179.913 48.9741 179.508 49.6576C179.168 50.2332 179.228 51.1153 179.875 51.4785C182.207 52.797 185.884 54.9168 186.614 57.724C186.979 59.1319 186.358 60.5733 185.839 61.8567C185.439 62.8455 185.077 63.8805 184.617 64.8583C183.658 64.2797 182.607 63.8503 181.599 63.3056C181.203 63.0918 180.774 62.8254 180.324 62.5854L180.328 62.5867Z" fill="#FFEFF0"/>
<path d="M113.766 83.2539C113.175 81.9757 112.321 80.8235 111.265 79.8923C112.156 79.565 112.99 79.069 113.709 78.4558C114.503 77.7797 115.143 76.974 115.685 76.1023C115.797 76.356 115.923 76.6059 116.066 76.8407C116.739 77.9372 117.687 78.8037 118.797 79.378C116.727 80.0085 114.915 81.424 113.77 83.2552L113.766 83.2539Z" fill="white"/>
<path d="M225.768 71.4823C225.012 71.7665 224.313 72.1782 223.688 72.6847C223.456 71.2125 222.853 69.7929 221.946 68.6146C223.608 68.4248 225.204 67.8048 226.563 66.8314C226.486 67.5688 226.474 68.3148 226.568 69.0666C226.655 69.7496 226.844 70.4285 227.125 71.0671C226.64 71.1739 226.173 71.3282 225.764 71.4811L225.768 71.4823Z" fill="#FFA3A9"/>
<path d="M182.421 49.9128C182.883 49.144 183.352 48.3777 183.824 47.6164C184.276 46.8902 183.967 45.9176 183.141 45.6414C181.826 45.1954 180.505 44.752 179.189 44.306C178.312 44.0087 177.323 44.8494 177.451 45.725C177.154 46.2354 176.857 46.742 176.564 47.2537C173.536 46.3268 170.184 45.8141 167.282 47.3497C163.905 49.1374 161.646 53.2101 160.302 56.6339C158.242 62.1891 161.671 66.8065 164.677 71.1764C164.2 72.2193 163.719 73.2648 163.242 74.3077C163.157 74.1966 163.057 74.0968 162.924 74.0197C160.417 72.5353 157.862 71.1475 155.253 69.8587C154.579 69.5244 153.909 69.5993 153.432 70.2255C152.294 71.705 151.521 73.3296 151.095 75.1433C151.05 75.3287 151.043 75.5014 151.061 75.6616C150.398 78.9766 151.686 82.2762 153.447 85.1398C154.103 86.2101 154.822 87.1887 155.598 88.1735C155.844 88.488 156.151 88.8099 156.405 89.1519C156.111 89.5384 156.091 90.0778 155.626 90.3911C154.883 90.888 154.535 92.1195 155.491 92.6593C156.959 93.489 158.472 94.1708 160.076 94.6909C160.779 94.9225 161.471 94.5171 161.735 93.8541C161.879 93.4932 162.027 93.1335 162.171 92.7725C169.43 94.3392 177.936 90.6039 180.933 83.7452C184.186 76.2999 178.483 71.2874 174.112 66.0512C175.113 63.7599 176.172 61.496 177.286 59.2632C177.951 60.2446 178.354 61.4734 177.404 62.2689C176.339 63.1637 177.315 64.7147 178.549 64.5377C177.883 64.6352 178.629 64.6976 179.062 64.9026C179.606 65.1611 180.125 65.4696 180.656 65.7569C181.79 66.3725 183.168 66.7556 184.083 67.6736C184.665 68.2573 185.685 68.285 186.162 67.5337C187.164 65.947 187.776 64.1152 188.473 62.3782C189.131 60.7364 189.616 58.9338 189.202 57.1681C188.463 54.0243 185.218 51.5926 182.433 49.9165L182.421 49.9128ZM180.333 62.5754C181.18 60.2709 179.517 57.4645 177.693 55.8802C177.197 55.4501 176.165 55.6727 175.872 56.247C174.251 59.3964 172.734 62.5968 171.328 65.8506C171.146 66.278 171.318 66.793 171.589 67.1325C174.982 71.3421 180.853 75.6682 178.87 81.7612C176.722 88.3704 168.276 91.9466 161.783 89.9655C161.067 89.7464 160.399 90.1305 160.124 90.8022C159.992 91.1256 159.863 91.4539 159.732 91.7773C159.273 91.6012 158.824 91.4075 158.379 91.2025C158.896 90.5061 159.263 89.7101 159.205 88.9745C159.132 88.0461 158.1 87.1185 157.559 86.4321C155.133 83.3493 152.441 79.2161 153.913 75.1761C153.991 74.9643 154.014 74.7677 153.994 74.5901C154.246 73.9021 154.557 73.259 154.947 72.6332C156.814 73.5816 158.651 74.5827 160.46 75.6289C159.372 77.958 158.85 80.3277 159.825 82.8949C160.278 84.0861 161.831 83.6226 162.247 82.7138C163.385 80.2344 164.524 77.7512 165.662 75.2717C166.204 74.0921 167.163 72.7247 167.409 71.4598C167.583 70.5668 167.02 69.9856 166.537 69.2889C164.104 65.7706 161.12 61.9538 162.789 57.4576C163.866 54.7205 165.764 51.1584 168.458 49.6998C171.03 48.3054 174.168 49.2018 176.75 50.0777C177.264 50.2511 177.975 50.0522 178.255 49.5568C178.7 48.7743 179.152 47.9981 179.607 47.2231C179.987 47.3481 180.362 47.4758 180.74 47.6046C180.326 48.2806 179.918 48.9628 179.513 49.6463C179.174 50.222 179.233 51.1041 179.88 51.4673C182.212 52.7858 185.889 54.9056 186.619 57.7127C186.984 59.1206 186.363 60.562 185.844 61.8454C185.444 62.8342 185.082 63.8692 184.622 64.847C183.663 64.2684 182.612 63.839 181.604 63.2944C181.208 63.0805 180.779 62.8141 180.329 62.5742L180.333 62.5754Z" fill="#231F20"/>
<path d="M167.719 74.829C166.16 78.1072 164.155 80.8424 163.096 84.3604C162.873 85.0995 163.393 86.1377 164.278 86.0834C168.511 85.8321 172.529 82.8934 171.941 78.395C171.94 78.2698 171.926 78.1359 171.878 77.9909C171.85 77.8484 171.803 77.7246 171.744 77.6134C171.345 76.536 170.797 75.6181 170.143 74.6441C169.476 73.6452 168.233 73.7522 167.721 74.8253L167.719 74.829ZM166.392 83.0173C167.16 81.245 168.124 79.6084 169.049 77.9132C169.144 78.1193 169.233 78.328 169.304 78.543C169.712 80.6942 168.248 82.2787 166.394 83.0135L166.392 83.0173Z" fill="#231F20"/>
<path d="M173.523 54.4442C173.489 54.4456 173.457 54.4432 173.423 54.4445C173.335 54.4448 173.257 54.4564 173.18 54.4729C173.146 54.4743 173.119 54.4694 173.084 54.4745C171.132 54.6815 169.373 55.8853 168.473 57.6306C167.492 59.5325 167.948 61.437 168.903 63.2434C169.483 64.3427 170.853 64.0526 171.325 63.0623C172.376 60.8584 173.449 58.6658 174.554 56.4881C174.969 55.6707 174.631 54.4341 173.526 54.4492L173.523 54.4442Z" fill="#231F20"/>
<path d="M207.223 50.6589C203.079 42.3307 196.315 35.2894 187.835 31.3578C180.266 27.8473 171.472 27.4999 163.366 28.9836C154.847 30.5438 146.61 34.2093 139.864 39.658C133.413 44.8705 128.262 52.032 126.62 60.2665C126.61 60.3091 126.605 60.3491 126.599 60.3929C126.336 60.5478 126.126 60.7788 126.063 61.0831C124.345 69.4342 125.934 78.0291 129.775 85.5825C133.631 93.1658 139.594 99.718 146.681 104.412C153.772 109.106 162.131 111.915 170.69 111.572C180.161 111.192 189.317 107.459 196.616 101.455C203.826 95.5213 209.257 87.2312 211.094 78.0149C212.934 68.7748 211.409 59.0759 207.226 50.6639L207.223 50.6589ZM206.566 83.9278C204.985 87.7904 202.42 91.8205 199.629 94.9302C193.622 101.627 185.651 106.343 176.916 108.169C172.66 109.058 168.43 109.248 164.052 108.589C163.829 108.557 163.607 108.522 163.39 108.484C163.292 108.468 163.19 108.447 163.091 108.431C163.06 108.425 163.036 108.421 163.02 108.42C163.005 108.415 162.981 108.411 162.957 108.408C162.436 108.307 161.915 108.193 161.4 108.074C160.442 107.846 159.489 107.577 158.55 107.276C157.604 106.973 156.667 106.631 155.744 106.26C155.317 106.086 154.896 105.91 154.475 105.721C154.246 105.621 154.018 105.516 153.789 105.412C153.674 105.357 153.563 105.304 153.446 105.253C153.381 105.223 153.319 105.195 153.255 105.161C153.237 105.155 153.223 105.146 153.194 105.132C149.567 103.329 146.199 101.069 143.132 98.4254C143.103 98.3992 143.083 98.3843 143.067 98.3706C143.051 98.3569 143.028 98.3369 142.999 98.3108C142.903 98.2247 142.806 98.1387 142.709 98.0527C142.516 97.8807 142.328 97.7061 142.139 97.5315C141.759 97.1812 141.388 96.8258 141.02 96.4629C140.285 95.737 139.572 94.9899 138.884 94.2213C137.509 92.6892 136.231 91.068 135.064 89.3749C135.064 89.3749 134.95 89.2127 134.925 89.1752C134.866 89.089 134.808 88.9991 134.749 88.913C134.618 88.7157 134.491 88.5196 134.364 88.3236C134.078 87.8753 133.798 87.4245 133.525 86.9636C133.005 86.0881 132.516 85.1937 132.056 84.288C131.6 83.3835 131.177 82.4651 130.785 81.5315C130.608 81.1066 130.437 80.6792 130.271 80.2455C130.037 79.6268 129.981 79.4706 129.796 78.9055C129.17 77.0117 128.688 75.0735 128.37 73.1022C128.297 72.6532 128.233 72.2028 128.178 71.7512C128.147 71.5035 128.12 71.2571 128.096 71.0119C128.083 70.8868 128.073 70.7667 128.06 70.6415C128.056 70.6028 128.056 70.5777 128.055 70.5565C128.051 70.4926 128.043 70.4276 128.039 70.3638C127.977 69.5017 127.958 68.637 127.964 67.7722C128.336 67.5531 128.615 67.1616 128.612 66.7149C128.606 65.6836 128.651 64.6485 128.752 63.6231C128.801 63.1186 128.863 62.614 128.94 62.1144C128.977 61.864 129.021 61.616 129.062 61.3668C129.07 61.3405 129.07 61.328 129.071 61.3117C129.074 61.3042 129.076 61.2967 129.081 61.2817C129.108 61.1364 129.138 60.9961 129.169 60.8521C129.572 58.9058 130.178 57.0052 130.959 55.179C131.054 54.9521 131.154 54.7265 131.257 54.5021C131.306 54.3893 131.36 54.2778 131.413 54.1662C131.418 54.1512 131.467 54.0546 131.495 53.9932C131.708 53.5632 131.927 53.1394 132.157 52.7194C132.635 51.8479 133.148 51.0001 133.7 50.1734C134.252 49.343 134.844 48.5337 135.467 47.7556C135.766 47.3791 136.075 47.0101 136.388 46.6423C136.408 46.6197 136.468 46.5519 136.495 46.5193C136.563 46.4415 136.635 46.3611 136.706 46.2845C136.903 46.0661 137.104 45.8489 137.305 45.6317C138.704 44.1425 140.214 42.7568 141.809 41.4822C142.618 40.8362 143.451 40.2188 144.3 39.6276C144.527 39.4691 144.693 39.3572 144.773 39.3043C144.954 39.1848 145.135 39.0653 145.316 38.9458C145.792 38.64 146.27 38.3392 146.758 38.0459C148.561 36.9646 150.43 35.9969 152.349 35.1417C153.311 34.7129 154.288 34.314 155.273 33.9426C155.782 33.7519 156.056 33.6546 156.446 33.5206C156.943 33.3511 157.443 33.1867 157.948 33.0323C159.947 32.4158 161.988 31.9131 164.048 31.5418C165.067 31.3568 166.093 31.203 167.124 31.0843C167.622 31.0275 168.122 30.9757 168.619 30.9352C168.692 30.9299 168.824 30.9195 168.829 30.9169C168.957 30.909 169.086 30.8973 169.213 30.8893C169.469 30.8734 169.724 30.8575 169.978 30.8454C171.992 30.7508 174.015 30.7838 176.024 30.9708C177.011 31.0625 177.99 31.1892 178.964 31.3561C179.087 31.3757 179.205 31.3978 179.326 31.4211C179.352 31.4298 179.374 31.4285 179.389 31.4334C179.408 31.4396 179.431 31.4433 179.459 31.4482C179.697 31.4974 179.94 31.5442 180.177 31.5972C180.651 31.6994 181.126 31.8141 181.594 31.9351C183.452 32.418 185.272 33.055 187.01 33.8612C187.354 34.0202 187.626 34.1557 188.123 34.4155C188.66 34.6965 189.192 34.9925 189.712 35.2973C190.672 35.8634 191.609 36.4721 192.516 37.121C194.376 38.4549 195.834 39.7102 197.426 41.3391C198.972 42.9194 200.386 44.6228 201.659 46.4256C206.629 53.4594 209.451 62.3729 209.244 71.0341C209.136 75.5737 208.293 79.7004 206.56 83.934L206.566 83.9278Z" fill="#231F20"/>
<path d="M199.516 54.4452C196.217 47.7786 190.811 42.1681 184.039 39.0202C178.029 36.2277 171.032 35.9516 164.591 37.1254C157.809 38.3617 151.255 41.2817 145.883 45.6206C140.755 49.7647 136.644 55.4771 135.341 62.0233C135.124 62.1768 134.958 62.3889 134.904 62.6544C133.537 69.3084 134.773 76.1412 137.826 82.1641C140.894 88.2208 145.656 93.4569 151.317 97.193C156.913 100.887 163.508 103.118 170.254 102.878C177.827 102.606 185.142 99.6537 190.986 94.8663C196.744 90.1506 201.1 83.5312 202.562 76.1873C204.025 68.8358 202.835 61.1431 199.521 54.4427L199.516 54.4452ZM189.608 45.7178C189.634 45.739 189.65 45.7527 189.608 45.7178V45.7178ZM138.524 77.1769C138.544 77.2294 138.577 77.3319 138.524 77.1769V77.1769ZM198.431 80.7559C197.781 82.3376 197.065 83.7017 196.086 85.242C195.186 86.6581 194.024 88.1877 193.024 89.3C190.652 91.9352 187.88 94.1888 184.929 95.8999C183.399 96.7875 181.803 97.5577 180.157 98.2029C178.651 98.7901 176.928 99.3017 175.206 99.6594C171.892 100.347 168.64 100.492 165.211 99.9832C165.008 99.9539 164.811 99.922 164.609 99.8889C164.554 99.8791 164.365 99.846 164.298 99.8325C163.915 99.7562 163.537 99.6774 163.159 99.5861C162.401 99.4073 161.649 99.1971 160.904 98.9557C160.153 98.7167 159.413 98.4477 158.685 98.1536C158.335 98.0134 157.991 97.8669 157.649 97.7167C157.479 97.6397 157.305 97.5615 157.134 97.4845C157.04 97.441 156.946 97.3975 156.85 97.349C156.817 97.3341 156.796 97.3229 156.781 97.318C156.762 97.3118 156.744 97.3018 156.717 97.2844C150.881 94.3824 146.211 90.2561 142.485 84.9201C142.469 84.8938 142.406 84.8064 142.383 84.774C142.347 84.7203 142.314 84.6678 142.278 84.6142C142.172 84.4543 142.066 84.2945 141.962 84.1309C141.744 83.7925 141.533 83.4478 141.323 83.0994C140.908 82.4087 140.52 81.7017 140.156 80.9859C139.796 80.2712 139.455 79.5465 139.149 78.808C139.001 78.4593 138.862 78.1094 138.728 77.7569C138.655 77.5619 138.582 77.3669 138.512 77.1732C138.509 77.1594 138.503 77.1494 138.497 77.1307C138.457 77.0132 138.416 76.8957 138.377 76.7744C137.889 75.2968 137.508 73.7838 137.256 72.2466C137.192 71.8588 137.137 71.4698 137.089 71.0832C137.069 70.9181 137.052 70.7542 137.035 70.5903C137.024 70.4865 137.016 70.3839 137.008 70.2813C137.006 70.2475 137 70.2163 136.999 70.1825C137 70.1787 136.997 70.1612 136.996 70.1274C136.95 69.4705 136.931 68.8185 136.932 68.1602C137.232 67.9302 137.445 67.5878 137.444 67.1998C137.439 66.3813 137.473 65.5677 137.554 64.7527C137.592 64.3734 137.637 63.9965 137.694 63.6196C137.725 63.413 137.76 63.2039 137.795 62.9985C137.799 62.9872 137.803 62.9597 137.807 62.9359C137.827 62.8257 137.85 62.7167 137.874 62.6078C138.197 61.0685 138.676 59.5638 139.297 58.1224C139.363 57.9732 139.43 57.8203 139.496 57.6711C139.539 57.5771 139.583 57.4831 139.625 57.3929C139.632 57.3703 139.656 57.3239 139.677 57.285C139.844 56.944 140.017 56.6093 140.201 56.2783C140.568 55.6074 140.966 54.9552 141.389 54.3155C141.826 53.6594 142.292 53.017 142.783 52.3996C143.017 52.1059 143.259 51.8147 143.499 51.5273C143.519 51.5047 143.528 51.4909 143.542 51.4746C143.544 51.4671 143.554 51.462 143.563 51.4482C143.63 51.3704 143.703 51.2901 143.774 51.2135C143.913 51.0553 144.055 50.9021 144.201 50.7502C145.307 49.5687 146.501 48.4744 147.763 47.4651C149.103 46.3941 150.177 45.652 151.585 44.8074C152.988 43.9615 154.446 43.2042 155.946 42.5357C156.708 42.1952 157.479 41.8784 158.259 41.5853C158.996 41.3074 159.565 41.1114 160.432 40.8469C161.994 40.3659 163.585 39.9774 165.193 39.6864C166 39.5397 166.811 39.4192 167.625 39.3251C168.007 39.2799 168.391 39.2398 168.776 39.2084C168.794 39.2059 168.802 39.2046 168.811 39.2033C168.832 39.202 168.85 39.1994 168.884 39.198C168.969 39.1927 169.054 39.1874 169.139 39.1821C169.352 39.1689 169.564 39.1556 169.776 39.1461C171.369 39.0668 172.968 39.0937 174.557 39.2422C175.337 39.3158 176.113 39.4132 176.882 39.5457C176.941 39.5568 177.173 39.5998 177.209 39.6034C177.385 39.6366 177.561 39.6735 177.736 39.7104C178.133 39.7954 178.528 39.8879 178.919 39.9917C180.35 40.3634 181.751 40.8541 183.094 41.4715C183.203 41.5199 183.311 41.5721 183.415 41.6231C183.357 41.5957 183.2 41.5149 183.457 41.6454C183.647 41.7411 183.832 41.8356 184.021 41.9313C184.416 42.1365 184.804 42.3516 185.184 42.5768C185.945 43.0235 186.691 43.5027 187.409 44.0184C188.128 44.5302 188.818 45.0785 189.494 45.6468C189.522 45.673 189.546 45.6892 189.565 45.7079C189.649 45.7815 189.733 45.855 189.814 45.9273C189.968 46.0657 190.125 46.2091 190.274 46.35C190.616 46.6667 190.946 46.9922 191.27 47.324C192.492 48.5725 193.611 49.9202 194.617 51.3435C195.026 51.924 195.479 52.6233 195.913 53.3539C196.366 54.1158 196.787 54.9003 197.179 55.6961C197.965 57.2928 198.599 58.8725 199.087 60.454C200.128 63.8307 200.622 67.1643 200.54 70.5875C200.452 74.1922 199.794 77.3921 198.41 80.7572L198.431 80.7559Z" fill="#231F20"/>
<path d="M209.186 40.0593C214.564 41.5311 218.374 47.5702 217.148 53.0624C217.02 53.641 217.245 54.2485 217.846 54.4467C218.407 54.6312 219.049 54.3136 219.231 53.7485C220.799 48.8359 225.615 45.0846 230.823 44.9213C231.412 44.903 231.939 44.5057 231.969 43.8824C231.989 43.4805 231.744 43.0496 231.384 42.8519C231.31 42.3565 230.88 41.9025 230.354 41.9043C228.247 41.9141 226.549 40.3506 225.681 38.5227C224.651 36.3624 224.612 33.862 224.553 31.5131C224.525 30.4832 223.17 29.8909 222.545 30.8518C221.066 33.1397 219.285 35.3736 216.908 36.7823C214.811 38.0248 212.265 38.6569 209.876 37.9781C209.306 37.8236 208.684 38.0936 208.492 38.6763C208.312 39.2213 208.619 39.8973 209.19 40.0605L209.186 40.0593ZM217.758 38.8168C219.616 37.7453 221.167 36.2731 222.511 34.624C222.671 36.4143 223.019 38.179 223.855 39.7755C224.62 41.2359 225.824 42.5408 227.282 43.3254C224.135 44.2512 221.311 46.2084 219.348 48.8284C218.781 45.4625 216.926 42.3302 214.203 40.187C215.448 39.9224 216.652 39.4564 217.758 38.8168Z" fill="#231F20"/>
<path d="M121.565 77.9442C120.106 77.8304 118.678 77.0056 117.939 75.7203C117.279 74.5737 117.174 73.26 117.534 72.0285C117.619 71.7979 117.702 71.5711 117.781 71.3431C117.982 70.7842 117.635 70.1409 117.083 69.9588C116.47 69.7569 115.944 70.1129 115.699 70.657C115.571 70.944 115.464 71.2422 115.379 71.5517C114.709 73.3937 113.92 75.2837 112.47 76.6229C111.175 77.8213 109.336 78.5236 107.653 77.8899C106.298 77.4979 105.648 79.4713 106.968 79.9685C110.103 80.8725 112.503 83.9216 112.491 87.2469C112.483 88.6487 114.613 88.7752 114.68 87.3557C114.834 84.0812 117.866 81.1384 121.223 81.2068C122.068 81.2227 122.442 80.4417 122.306 79.8051C122.809 79.2127 122.596 78.0257 121.568 77.9454L121.565 77.9442ZM113.765 83.2539C113.173 81.9757 112.32 80.8235 111.264 79.8923C112.155 79.565 112.989 79.0691 113.708 78.4558C114.502 77.7797 115.142 76.974 115.684 76.1024C115.796 76.356 115.922 76.6059 116.065 76.8407C116.738 77.9372 117.685 78.8037 118.796 79.378C116.726 80.0085 114.914 81.424 113.769 83.2552L113.765 83.2539Z" fill="#231F20"/>
<path d="M230.754 72.0382C227.525 70.1909 228.834 65.7885 229.73 63.0045C229.912 62.4395 229.6 61.8073 229.032 61.6203C228.423 61.4196 227.894 61.7744 227.648 62.3184C226.241 65.4508 222.245 67.1968 218.977 66.2245C218.457 66.0699 217.892 66.2921 217.658 66.7898C217.45 67.2298 217.533 67.9278 218.025 68.1777C220.88 69.6057 222.328 73.1037 221.249 76.0861C220.767 77.4106 222.849 78.0967 223.328 76.7709C223.754 75.603 224.616 74.57 225.713 73.9317C226.28 73.6018 226.865 73.3695 227.507 73.2434C227.752 73.195 228.008 73.1503 228.263 73.1507C228.364 73.8674 229.183 74.4666 229.891 73.9998C230.322 74.0959 230.783 73.9604 231.049 73.5603C231.361 73.0924 231.26 72.338 230.744 72.0432L230.754 72.0382ZM225.765 71.4861C225.009 71.7703 224.311 72.182 223.685 72.6885C223.454 71.2163 222.851 69.7966 221.943 68.6184C223.605 68.4286 225.202 67.8086 226.56 66.8352C226.483 67.5726 226.471 68.3185 226.565 69.0704C226.653 69.7534 226.841 70.4323 227.123 71.0709C226.637 71.1777 226.17 71.332 225.761 71.4848L225.765 71.4861Z" fill="#231F20"/>
<path d="M166.391 83.0123C167.158 81.24 168.122 79.6034 169.048 77.9081C169.142 78.1143 169.232 78.323 169.303 78.538C169.71 80.6892 168.247 82.2737 166.392 83.0085L166.391 83.0123Z" fill="#FFA3A9"/>
<path d="M172.734 56.1928C171.967 57.9651 171.002 59.6016 170.077 61.2969C169.983 61.0907 169.893 60.8821 169.822 60.667C169.414 58.5158 170.878 56.9313 172.733 56.1965L172.734 56.1928Z" fill="#FFA3A9"/>
</g>
<defs>
<clipPath id="clip0_16085_123800">
<rect width="116.944" height="96" fill="white" transform="translate(132.125 0.239594) rotate(18.2359)"/>
</clipPath>
</defs>
</svg>
